<?xml version="1.0" encoding="utf-8" ?>
<svg xmlns="http://www.w3.org/2000/svg" xmlns:xlink="http://www.w3.org/1999/xlink" width="41" height="41">
	<defs>
		<clipPath id="clip_0">
			<rect x="-2443.28" y="-4933" width="2822.4001" height="5332.1802" clip-rule="evenodd"/>
		</clipPath>
	</defs>
	<g clip-path="url(#clip_0)">
		<path fill="rgb(186,187,195)" stroke="none" transform="matrix(0.98 0 0 0.98 0.840088 0.257568)" d="M20.3645 0C31.6112 0 40.729 9.1101 40.729 20.3475C40.729 31.5849 31.6112 40.695 20.3645 40.695C9.1177 40.695 0 31.5849 0 20.3475C0 9.1101 9.1177 0 20.3645 0ZM15.7149 17.4027L15.7149 20.5517L17.6463 20.5517L17.6463 30.0496L20.7711 30.0496L20.7711 20.5517L23.9077 20.5517L24.4032 17.4026L20.771 17.4026L20.771 15.8259C20.771 15.0046 21.039 14.2207 22.2203 14.2207L24.5769 14.2207L24.5769 11.0792L21.2292 11.0792C18.4144 11.0792 17.6463 12.9297 17.6463 15.4983L17.6463 17.4027L15.7149 17.4027Z" fill-rule="evenodd"/>
	</g>

</svg>