<?xml version="1.0" encoding="utf-8" ?>
<svg xmlns="http://www.w3.org/2000/svg" xmlns:xlink="http://www.w3.org/1999/xlink" width="41" height="41">
	<defs>
		<clipPath id="clip_0">
			<rect x="-2611.28" y="-4934" width="2822.4001" height="5332.1802" clip-rule="evenodd"/>
		</clipPath>
	</defs>
	<g clip-path="url(#clip_0)">
		<path fill="rgb(186,187,195)" stroke="none" transform="matrix(0.98 0 0 0.98 0.479126 0.393555)" d="M0 20.3475C0 9.10986 9.11746 0 20.3645 0C31.6115 0 40.729 9.10986 40.729 20.3475C40.729 31.5852 31.6115 40.695 20.3645 40.695C9.11746 40.695 0 31.5852 0 20.3475ZM14.4326 14.9306C13.2469 14.9306 12.2871 13.9702 12.2871 12.7872C12.2874 11.6052 13.2469 10.6448 14.4326 10.6448C15.615 10.6448 16.5762 11.6052 16.5762 12.7872C16.5762 13.9705 15.6147 14.9306 14.4326 14.9306ZM26.4399 28.4483L30.1361 28.4483L30.1361 21.9255C30.1361 18.7235 29.4447 16.2605 25.6989 16.2605C23.8992 16.2605 22.693 17.2462 22.199 18.1812L22.1492 18.1812L22.1492 16.5562L18.6013 16.5562L18.6013 28.448L22.2972 28.448L22.2972 22.5652C22.2972 21.0141 22.5931 19.512 24.517 19.512C26.4143 19.512 26.4399 21.2858 26.4399 22.665L26.4399 28.4483ZM12.5822 28.4483L16.2814 28.4483L16.2814 16.5562L12.5822 16.5562L12.5822 28.4483Z" fill-rule="evenodd"/>
	</g>

</svg>