<?xml version="1.0" encoding="utf-8" ?>
<svg xmlns="http://www.w3.org/2000/svg" xmlns:xlink="http://www.w3.org/1999/xlink" width="41" height="41">
	<defs>
		<clipPath id="clip_0">
			<rect x="-2499.28" y="-4933" width="2822.4001" height="5332.1802" clip-rule="evenodd"/>
		</clipPath>
	</defs>
	<g clip-path="url(#clip_0)">
		<path fill="rgb(186,187,195)" stroke="none" transform="matrix(0.98 0 0 0.98 1.03931 0.257568)" d="M0 20.3475C0 9.1101 9.1177 0 20.3645 0C31.6112 0 40.729 9.1101 40.729 20.3475C40.729 31.5849 31.6112 40.695 20.3645 40.695C9.1177 40.695 0 31.5849 0 20.3475ZM19.8037 24.1363C20.1987 24.9017 21.3477 25.5755 22.5689 25.5755C26.2067 25.5755 28.6745 22.1928 28.6731 17.662C28.6731 14.2388 25.8297 11.0497 21.5099 11.0497C16.1342 11.0497 13.423 14.9817 13.423 18.2609C13.423 20.2449 14.159 22.0113 15.7406 22.6702C15.999 22.7782 16.2318 22.6746 16.3069 22.382C16.358 22.1794 16.4827 21.6691 16.5367 21.456C16.6133 21.1663 16.5833 21.0643 16.3745 20.8121C15.9179 20.2643 15.628 19.5545 15.628 18.549C15.628 15.633 17.7669 13.0217 21.199 13.0217C24.2376 13.0217 25.9079 14.9141 25.9079 17.4444C25.9079 20.7716 24.4629 23.5811 22.3195 23.5811C21.1359 23.5811 20.2497 22.5831 20.5336 21.3584C20.8731 19.8967 21.5324 18.3179 21.5324 17.2628C21.5324 16.3189 21.0353 15.5294 20.0064 15.5294C18.7958 15.5294 17.824 16.8066 17.824 18.5175C17.824 19.607 18.1859 20.3439 18.1859 20.3439C18.1859 20.3439 16.9483 25.6972 16.7305 26.6336C16.5337 27.4876 16.5052 28.4255 16.5322 29.2179C16.6148 29.9294 17.3043 30.5086 17.902 29.7282C18.3211 29.0424 18.7732 28.1764 19.0076 27.3089C19.1472 26.7957 19.8037 24.1363 19.8037 24.1363Z" fill-rule="evenodd"/>
	</g>

</svg>