<?xml version="1.0" encoding="utf-8" ?>
<svg xmlns="http://www.w3.org/2000/svg" xmlns:xlink="http://www.w3.org/1999/xlink" width="41" height="41">
	<defs>
		<clipPath id="clip_0">
			<rect x="-2555.28" y="-4933" width="2822.4001" height="5332.1802" clip-rule="evenodd"/>
		</clipPath>
	</defs>
	<g clip-path="url(#clip_0)">
		<path fill="rgb(186,187,195)" stroke="none" transform="matrix(0.98 0 0 0.98 0.867065 0.525635)" d="M0 20.3475C0 9.10986 9.11746 0 20.3645 0C31.6115 0 40.729 9.10986 40.729 20.3475C40.729 31.5852 31.6115 40.695 20.3645 40.695C9.11746 40.695 0 31.5852 0 20.3475ZM28.6147 18.0071C28.6147 17.8522 28.6115 17.698 28.6054 17.5442C29.3711 16.9849 30.0276 16.2999 30.5574 15.5076C30.5814 15.4719 30.579 15.4247 30.5513 15.3916C30.5233 15.3588 30.4771 15.3476 30.4381 15.3655C29.8566 15.6233 29.2451 15.8084 28.615 15.918C29.2841 15.4153 29.7821 14.7191 30.0375 13.9209C30.0498 13.8825 30.037 13.8409 30.006 13.8158C29.9743 13.791 29.931 13.7878 29.8966 13.8084C29.1429 14.2548 28.327 14.5695 27.4706 14.7439C26.7107 13.9566 25.6506 13.5062 24.5537 13.5062C22.3225 13.5062 20.5071 15.3199 20.5071 17.5495C20.5071 17.8191 20.5332 18.0863 20.5847 18.3455C17.4941 18.1548 14.604 16.6721 12.6391 14.2641C12.6191 14.2396 12.5884 14.2257 12.5566 14.2289C12.5251 14.2313 12.4969 14.2489 12.4808 14.2764C12.1221 14.8911 11.9326 15.594 11.9326 16.3092C11.9326 17.549 12.4963 18.7079 13.4563 19.4724C12.9618 19.413 12.4798 19.2578 12.0442 19.0162C12.0148 18.9996 11.9786 18.9999 11.9495 19.017C11.9201 19.0338 11.9017 19.0647 11.9009 19.0986L11.9004 19.1503C11.9004 20.9303 13.0744 22.4938 14.7449 23.0125C14.305 23.0839 13.8487 23.0783 13.3997 22.9933C13.3667 22.9871 13.332 22.9983 13.3093 23.0239C13.2869 23.0495 13.2794 23.085 13.2898 23.1175C13.7905 24.68 15.1826 25.7752 16.8024 25.9117C15.4511 26.9008 13.8535 27.4221 12.1659 27.4221C11.855 27.4221 11.5416 27.404 11.2353 27.3674C11.1912 27.3624 11.1483 27.3885 11.133 27.4306C11.1178 27.473 11.1336 27.5202 11.1717 27.5445C12.9981 28.7149 15.11 29.3333 17.279 29.3333C24.3746 29.3333 28.6147 23.5746 28.6147 18.0071Z" fill-rule="evenodd"/>
	</g>

</svg>